<?xml version="1.0" encoding="utf-8"?>
<!-- Generator: Adobe Illustrator 16.0.0, SVG Export Plug-In . SVG Version: 6.00 Build 0)  -->
<!DOCTYPE svg PUBLIC "-//W3C//DTD SVG 1.1//EN" "http://www.w3.org/Graphics/SVG/1.1/DTD/svg11.dtd">
<svg version="1.1" id="Layer_1" xmlns="http://www.w3.org/2000/svg" xmlns:xlink="http://www.w3.org/1999/xlink" x="0px" y="0px"
	 width="113.496px" height="64.87px" viewBox="0 0 113.496 64.87" enable-background="new 0 0 113.496 64.87" xml:space="preserve">
<g>
	<path opacity="0.86" fill-rule="evenodd" clip-rule="evenodd" fill="#A5CD39" d="M40.867,55.145h0.724v7.553h-0.724V55.145
		L40.867,55.145z M45.212,57.627h0.621v5.07h-0.621V57.627L45.212,57.627z M45.109,55.249h0.724v0.931h-0.724V55.249L45.109,55.249z
		 M51.834,55.145v0.62c-0.104-0.103-0.207-0.103-0.311-0.103c0,0-0.104,0-0.207,0c-0.207,0-0.414,0-0.518,0.206
		c-0.104,0.207-0.207,0.518-0.207,0.932v0.827h1.139v0.518h-1.139v4.553h-0.62v-4.553h-1.138v-0.518h1.138V56.8
		c0-0.621,0.104-1.035,0.31-1.345c0.311-0.311,0.621-0.311,1.035-0.311c0.104,0,0.207,0,0.207,0
		C51.627,55.145,51.73,55.145,51.834,55.145L51.834,55.145z M58.559,59.904v0.311h-3.518c0,0.725,0.207,1.241,0.414,1.552
		c0.311,0.311,0.828,0.414,1.345,0.414c0.207,0,0.518,0,0.725-0.104c0.206,0,0.413-0.104,0.62-0.207v0.621
		c-0.207,0.104-0.414,0.207-0.62,0.207c-0.207,0.104-0.518,0.104-0.725,0.104c-0.827,0-1.345-0.311-1.759-0.725
		s-0.621-1.138-0.621-1.966c0-0.724,0.207-1.345,0.621-1.862c0.311-0.518,0.828-0.725,1.552-0.725c0.621,0,1.034,0.207,1.345,0.621
		C58.352,58.559,58.559,59.18,58.559,59.904L58.559,59.904z M57.938,59.8c-0.104-0.517-0.207-1.034-0.413-1.241
		c-0.207-0.311-0.621-0.518-1.035-0.518c-0.413,0-0.724,0.207-1.034,0.518c-0.207,0.311-0.414,0.725-0.414,1.241H57.938z"/>
	<rect x="1.448" opacity="0.86" fill-rule="evenodd" clip-rule="evenodd" fill="#0066B2" width="39.315" height="50.282"/>
	<path opacity="0.86" fill-rule="evenodd" clip-rule="evenodd" fill="#A5CD39" d="M5.38,46.764c0.104-0.104,0.207-0.104,0.207,0
		c0.103,0.104,0.103,0.207,0,0.207c-0.104,0-0.104,0-0.207,0C5.38,46.868,5.38,46.764,5.38,46.764z"/>
	<path opacity="0.86" fill-rule="evenodd" clip-rule="evenodd" fill="#A5CD39" d="M5.276,45.833c0.104,0,0.207,0,0.207,0.104
		c0,0,0,0.104,0,0.207c-0.104,0-0.207,0-0.207-0.104C5.173,46.041,5.173,45.937,5.276,45.833z"/>
	<path opacity="0.86" fill-rule="evenodd" clip-rule="evenodd" fill="#A5CD39" d="M5.276,44.902c0,0,0.104,0,0.207,0
		c0,0.104,0,0.207,0,0.207c-0.104,0.104-0.207,0.104-0.311,0C5.173,45.005,5.173,45.005,5.276,44.902z"/>
	<path opacity="0.86" fill-rule="evenodd" clip-rule="evenodd" fill="#A5CD39" d="M5.173,44.282c0,0,0.104,0,0.207,0
		c0,0.104,0,0.207-0.104,0.207c0,0.104-0.104,0.104-0.207,0C5.069,44.385,5.069,44.385,5.173,44.282z"/>
	<path opacity="0.86" fill-rule="evenodd" clip-rule="evenodd" fill="#A5CD39" d="M5.173,43.557c0.104,0,0.104,0,0.207,0
		c0.104,0.104,0,0.207,0,0.207c-0.104,0.104-0.207,0.104-0.207,0C5.069,43.661,5.069,43.557,5.173,43.557z"/>
	<path opacity="0.86" fill-rule="evenodd" clip-rule="evenodd" fill="#A5CD39" d="M5.069,42.729c0.104-0.104,0.207-0.104,0.311,0
		s0,0.207-0.104,0.311c0,0.104-0.207,0-0.207,0C4.966,42.936,4.966,42.729,5.069,42.729z"/>
	<path opacity="0.86" fill-rule="evenodd" clip-rule="evenodd" fill="#A5CD39" d="M5.069,42.005c0.104,0,0.207,0,0.311,0.104
		c0,0.103,0,0.207-0.104,0.311c-0.104,0-0.207,0-0.311-0.104C4.966,42.211,4.966,42.109,5.069,42.005z"/>
	<path opacity="0.86" fill-rule="evenodd" clip-rule="evenodd" fill="#A5CD39" d="M4.966,41.281c0.104-0.104,0.207-0.104,0.311,0
		c0,0.104,0,0.207-0.104,0.311c0,0.104-0.207,0-0.207,0C4.862,41.488,4.862,41.281,4.966,41.281z"/>
	<path opacity="0.86" fill-rule="evenodd" clip-rule="evenodd" fill="#A5CD39" d="M4.966,40.454c0.104-0.104,0.207-0.104,0.311,0
		c0,0.104,0,0.207-0.104,0.311s-0.207,0-0.311,0C4.862,40.661,4.862,40.557,4.966,40.454z"/>
	<path opacity="0.86" fill-rule="evenodd" clip-rule="evenodd" fill="#A5CD39" d="M4.862,39.418c0.104-0.104,0.311,0,0.311,0.104
		c0.104,0.104,0.104,0.207,0,0.207c-0.104,0.104-0.207,0.104-0.311,0C4.862,39.625,4.862,39.522,4.862,39.418z"/>
	<path opacity="0.86" fill-rule="evenodd" clip-rule="evenodd" fill="#A5CD39" d="M4.966,38.591c0.104-0.104,0.207-0.104,0.311,0
		c0.104,0.103,0,0.206,0,0.31c-0.104,0.104-0.311,0-0.311,0C4.862,38.797,4.862,38.591,4.966,38.591z"/>
	<path opacity="0.86" fill-rule="evenodd" clip-rule="evenodd" fill="#A5CD39" d="M5.069,37.66c0.104,0,0.207,0,0.207,0
		c0.104,0.104,0.104,0.311,0,0.311c-0.104,0.104-0.207,0.104-0.311,0C4.966,37.867,4.966,37.763,5.069,37.66z"/>
	<path opacity="0.86" fill-rule="evenodd" clip-rule="evenodd" fill="#A5CD39" d="M5.069,36.729c0.207-0.104,0.414,0,0.518,0.104
		c0.103,0.104,0,0.311-0.104,0.518c-0.104,0.103-0.311,0-0.414-0.104S4.966,36.833,5.069,36.729z"/>
	<path opacity="0.86" fill-rule="evenodd" clip-rule="evenodd" fill="#A5CD39" d="M5.173,35.797
		c0.104-0.104,0.311-0.104,0.414,0.104c0.103,0.104,0.103,0.311,0,0.414c-0.207,0.104-0.414,0.104-0.518,0
		C4.966,36.108,4.966,35.901,5.173,35.797z"/>
	<path opacity="0.86" fill-rule="evenodd" clip-rule="evenodd" fill="#A5CD39" d="M5.173,34.867c0.104-0.104,0.311,0,0.414,0.104
		c0.103,0.104,0.103,0.31,0,0.413c-0.207,0.104-0.414,0.104-0.518,0C4.966,35.176,4.966,34.97,5.173,34.867z"/>
	<path opacity="0.86" fill-rule="evenodd" clip-rule="evenodd" fill="#A5CD39" d="M5.276,33.728
		c0.207-0.104,0.414-0.104,0.517,0.104c0.104,0.104,0.104,0.311-0.104,0.414c-0.103,0.104-0.31,0.104-0.414-0.104
		C5.173,34.039,5.173,33.832,5.276,33.728z"/>
	<path opacity="0.86" fill-rule="evenodd" clip-rule="evenodd" fill="#A5CD39" d="M5.483,32.797c0.104-0.207,0.31-0.104,0.414,0
		C6,33.004,6,33.211,5.897,33.211c-0.207,0.104-0.414,0.104-0.517,0S5.276,32.901,5.483,32.797z"/>
	<path opacity="0.86" fill-rule="evenodd" clip-rule="evenodd" fill="#A5CD39" d="M5.587,31.142c0.31-0.104,0.621-0.104,0.828,0.207
		c0.207,0.207,0.104,0.517-0.104,0.724C6,32.28,5.69,32.176,5.483,31.969C5.276,31.762,5.38,31.349,5.587,31.142z"/>
	<path opacity="0.86" fill-rule="evenodd" clip-rule="evenodd" fill="#A5CD39" d="M5.897,30.107
		c0.207-0.207,0.518-0.103,0.724,0.104c0.207,0.207,0.104,0.621-0.103,0.828c-0.207,0.104-0.621,0-0.828-0.207
		C5.587,30.625,5.587,30.314,5.897,30.107z"/>
	<path opacity="0.86" fill-rule="evenodd" clip-rule="evenodd" fill="#A5CD39" d="M6.104,28.866c0.207-0.104,0.621,0,0.828,0.104
		c0.104,0.311,0.104,0.621-0.207,0.828C6.518,30.004,6.208,29.9,6,29.694C5.793,29.383,5.897,29.073,6.104,28.866z"/>
	<path opacity="0.86" fill-rule="evenodd" clip-rule="evenodd" fill="#A5CD39" d="M6.518,27.417
		c0.207-0.207,0.517-0.207,0.724,0.104c0.207,0.207,0.104,0.517-0.104,0.724c-0.207,0.207-0.518,0.207-0.724-0.103
		C6.208,27.935,6.208,27.521,6.518,27.417z"/>
	<path opacity="0.86" fill-rule="evenodd" clip-rule="evenodd" fill="#A5CD39" d="M6.725,25.865
		c0.311-0.207,0.725-0.207,1.035,0.104c0.207,0.414,0.104,0.724-0.207,1.035c-0.311,0.207-0.725,0.104-0.932-0.207
		C6.415,26.589,6.415,26.072,6.725,25.865z"/>
	<path opacity="0.86" fill-rule="evenodd" clip-rule="evenodd" fill="#A5CD39" d="M7.449,24.313c0.31-0.207,0.724-0.207,1.035,0.104
		c0.207,0.311,0.103,0.725-0.207,0.932c-0.311,0.311-0.724,0.207-1.035-0.104C7.035,24.934,7.139,24.521,7.449,24.313z"/>
	<path opacity="0.86" fill-rule="evenodd" clip-rule="evenodd" fill="#A5CD39" d="M8.173,22.451
		c0.311-0.207,0.724-0.103,0.931,0.207c0.207,0.311,0.207,0.725-0.104,1.035C8.69,23.9,8.173,23.796,7.966,23.486
		C7.759,23.175,7.759,22.761,8.173,22.451z"/>
	<path opacity="0.86" fill-rule="evenodd" clip-rule="evenodd" fill="#A5CD39" d="M8.794,21.209
		c0.311-0.311,0.724-0.207,0.931,0.104s0.207,0.828-0.207,0.931c-0.31,0.311-0.621,0.207-0.931-0.103
		C8.38,21.831,8.484,21.417,8.794,21.209z"/>
	<path opacity="0.86" fill-rule="evenodd" clip-rule="evenodd" fill="#A5CD39" d="M9.312,19.865c0.31-0.311,0.828-0.207,1.035,0.104
		c0.207,0.31,0.207,0.724-0.104,0.931c-0.311,0.311-0.828,0.207-1.035-0.103C9.001,20.485,9.104,20.072,9.312,19.865z"/>
	<path opacity="0.86" fill-rule="evenodd" clip-rule="evenodd" fill="#A5CD39" d="M10.139,18.624
		c0.311-0.208,0.724-0.208,0.931,0.103c0.207,0.311,0.104,0.725-0.104,0.932c-0.311,0.207-0.724,0.104-0.931-0.207
		C9.829,19.244,9.829,18.83,10.139,18.624z"/>
	<path opacity="0.86" fill-rule="evenodd" clip-rule="evenodd" fill="#A5CD39" d="M10.967,17.588
		c0.207-0.207,0.518-0.104,0.724,0.104c0.207,0.207,0.104,0.518-0.104,0.724c-0.207,0.104-0.517,0.104-0.724-0.103
		C10.656,18.002,10.76,17.795,10.967,17.588z"/>
	<path opacity="0.86" fill-rule="evenodd" clip-rule="evenodd" fill="#A5CD39" d="M11.794,16.657
		c0.207-0.207,0.414-0.104,0.621,0.104c0.104,0.207,0.104,0.414-0.104,0.621c-0.207,0.104-0.517,0.104-0.621-0.104
		C11.484,17.071,11.587,16.761,11.794,16.657z"/>
	<path opacity="0.86" fill-rule="evenodd" clip-rule="evenodd" fill="#A5CD39" d="M12.519,15.623
		c0.207-0.104,0.517-0.104,0.724,0.104c0.104,0.207,0.104,0.414-0.104,0.621c-0.207,0.104-0.517,0.104-0.621-0.103
		C12.312,16.037,12.415,15.726,12.519,15.623z"/>
	<path opacity="0.86" fill-rule="evenodd" clip-rule="evenodd" fill="#A5CD39" d="M13.139,14.691
		c0.207-0.104,0.414-0.104,0.621,0.103c0.104,0.207,0.104,0.518-0.104,0.621c-0.207,0.207-0.414,0.104-0.621-0.104
		C12.933,15.105,12.933,14.898,13.139,14.691z"/>
	<path opacity="0.86" fill-rule="evenodd" clip-rule="evenodd" fill="#A5CD39" d="M13.864,13.864c0.207-0.104,0.414,0,0.517,0.104
		c0.104,0.207,0.104,0.414-0.104,0.517c-0.104,0.104-0.311,0.104-0.414-0.103C13.76,14.278,13.76,14.071,13.864,13.864z"/>
	<path opacity="0.86" fill-rule="evenodd" clip-rule="evenodd" fill="#A5CD39" d="M14.484,13.243c0.207-0.104,0.414-0.104,0.517,0
		c0.104,0.207,0.104,0.31-0.103,0.517c-0.104,0.104-0.311,0-0.414-0.104C14.381,13.45,14.381,13.347,14.484,13.243z"/>
	<path opacity="0.86" fill-rule="evenodd" clip-rule="evenodd" fill="#A5CD39" d="M15.105,12.519
		c0.207-0.104,0.414-0.104,0.518,0.104c0.104,0.104,0.104,0.311-0.104,0.414c-0.104,0.103-0.311,0.103-0.414-0.104
		C15.001,12.829,15.001,12.623,15.105,12.519z"/>
	<path opacity="0.86" fill-rule="evenodd" clip-rule="evenodd" fill="#A5CD39" d="M15.83,11.691c0.103-0.103,0.31,0,0.414,0.104
		c0.104,0.207,0,0.414-0.104,0.518c-0.207,0.104-0.31,0.104-0.414-0.104C15.623,12.105,15.623,11.898,15.83,11.691z"/>
	<path opacity="0.86" fill-rule="evenodd" clip-rule="evenodd" fill="#A5CD39" d="M16.347,11.174c0.207-0.104,0.414-0.104,0.517,0
		c0.104,0.103,0.104,0.31-0.103,0.414c-0.104,0.207-0.311,0.103-0.414,0C16.243,11.381,16.243,11.277,16.347,11.174z"/>
	<path opacity="0.86" fill-rule="evenodd" clip-rule="evenodd" fill="#A5CD39" d="M17.174,10.553c0.104,0,0.207,0,0.207,0.104
		c0.104,0.104,0.104,0.207,0,0.207c-0.104,0.104-0.207,0.104-0.311,0C17.071,10.76,17.071,10.657,17.174,10.553z"/>
	<path opacity="0.86" fill-rule="evenodd" clip-rule="evenodd" fill="#A5CD39" d="M17.795,10.036c0.104-0.104,0.207-0.104,0.207,0
		c0.104,0.104,0,0.207,0,0.311c-0.103,0-0.207,0-0.31,0C17.692,10.243,17.692,10.139,17.795,10.036z"/>
	<path opacity="0.86" fill-rule="evenodd" clip-rule="evenodd" fill="#A5CD39" d="M18.313,9.415c0.104,0,0.311,0,0.311,0.103
		c0.104,0,0.104,0.207,0,0.207c-0.104,0.104-0.207,0.104-0.311,0C18.209,9.622,18.313,9.518,18.313,9.415z"/>
	<path opacity="0.86" fill-rule="evenodd" clip-rule="evenodd" fill="#A5CD39" d="M19.037,8.898c0.104,0,0.207,0,0.311,0.104
		c0,0.103,0,0.103-0.104,0.207c0,0-0.104,0-0.207-0.104C18.933,9.104,18.933,9.001,19.037,8.898z"/>
	<path opacity="0.86" fill-rule="evenodd" clip-rule="evenodd" fill="#A5CD39" d="M19.554,8.587c0.104-0.104,0.207-0.104,0.207,0
		c0.103,0.104,0.103,0.207,0,0.311c-0.104,0-0.207,0-0.207-0.104C19.451,8.691,19.451,8.587,19.554,8.587z"/>
	<path opacity="0.86" fill-rule="evenodd" clip-rule="evenodd" fill="#A5CD39" d="M20.175,7.966c0,0,0.104,0,0.207,0.104
		c0.104,0,0,0.207-0.103,0.207c0,0.104-0.104,0.104-0.207,0C20.071,8.173,20.071,8.07,20.175,7.966z"/>
	<path opacity="0.86" fill-rule="evenodd" clip-rule="evenodd" fill="#F9A64A" d="M6.518,35.176c0-0.103,0.103,0,0.103,0.104
		c0.104,0,0,0.104-0.103,0.104c0,0-0.104,0-0.104-0.104C6.311,35.28,6.415,35.176,6.518,35.176z"/>
	<path opacity="0.86" fill-rule="evenodd" clip-rule="evenodd" fill="#F9A64A" d="M6.621,34.246c0.104,0,0.207,0,0.207,0.104
		s0,0.104-0.104,0.207c-0.104,0-0.104-0.104-0.207-0.104C6.518,34.349,6.621,34.246,6.621,34.246z"/>
	<path opacity="0.86" fill-rule="evenodd" clip-rule="evenodd" fill="#F9A64A" d="M6.932,33.315c0.104,0,0.104,0,0.207,0.104
		c0,0.104-0.104,0.104-0.104,0.206c-0.104,0-0.104-0.103-0.207-0.103C6.828,33.418,6.828,33.315,6.932,33.315z"/>
	<path opacity="0.86" fill-rule="evenodd" clip-rule="evenodd" fill="#F9A64A" d="M7.035,32.797c0.104-0.104,0.104,0,0.207,0
		c0,0.104-0.104,0.207-0.104,0.207c-0.104,0-0.104,0-0.207-0.103L7.035,32.797z"/>
	<path opacity="0.86" fill-rule="evenodd" clip-rule="evenodd" fill="#F9A64A" d="M7.346,31.969c0.104,0,0.104,0.104,0.207,0.104
		c0,0.104-0.104,0.207-0.104,0.207c-0.104,0-0.207,0-0.207-0.104S7.242,32.073,7.346,31.969z"/>
	<path opacity="0.86" fill-rule="evenodd" clip-rule="evenodd" fill="#F9A64A" d="M7.553,31.142c0.103,0,0.207,0.104,0.207,0.207
		c0.104,0.103,0,0.207-0.104,0.207c-0.103,0-0.207,0-0.31-0.104C7.346,31.349,7.449,31.245,7.553,31.142z"/>
	<path opacity="0.86" fill-rule="evenodd" clip-rule="evenodd" fill="#F9A64A" d="M7.759,30.625c0.104,0,0.207,0,0.207,0.104
		s0,0.207-0.104,0.31c-0.104,0-0.207-0.103-0.31-0.207C7.553,30.728,7.656,30.625,7.759,30.625z"/>
	<path opacity="0.86" fill-rule="evenodd" clip-rule="evenodd" fill="#F9A64A" d="M7.966,29.797c0.104,0,0.207,0,0.207,0.104
		c0.104,0.104,0,0.207-0.104,0.31c-0.104,0-0.207-0.104-0.311-0.207C7.759,29.9,7.863,29.797,7.966,29.797z"/>
	<path opacity="0.86" fill-rule="evenodd" clip-rule="evenodd" fill="#F9A64A" d="M8.173,28.969c0.104,0,0.207,0.104,0.311,0.207
		c0,0.104-0.104,0.207-0.207,0.207c-0.104,0.104-0.207,0-0.207-0.104C7.966,29.176,8.07,29.073,8.173,28.969z"/>
	<path opacity="0.86" fill-rule="evenodd" clip-rule="evenodd" fill="#F9A64A" d="M8.484,28.038c0.103,0,0.207,0.104,0.31,0.207
		c0,0.104-0.104,0.207-0.207,0.207c-0.103,0-0.207,0-0.207-0.104S8.38,28.142,8.484,28.038z"/>
	<path opacity="0.86" fill-rule="evenodd" clip-rule="evenodd" fill="#F9A64A" d="M8.897,27.314c0.104-0.104,0.207,0,0.207,0.104
		c0.104,0.104,0,0.207-0.104,0.207c-0.104,0.103-0.207,0-0.311-0.104C8.69,27.417,8.794,27.314,8.897,27.314z"/>
	<path opacity="0.86" fill-rule="evenodd" clip-rule="evenodd" fill="#F9A64A" d="M9.208,26.486c0.104,0,0.207,0,0.207,0.104
		c0.103,0.104,0,0.207-0.104,0.207c-0.104,0.104-0.207,0-0.207-0.104S9.104,26.486,9.208,26.486z"/>
	<path opacity="0.86" fill-rule="evenodd" clip-rule="evenodd" fill="#F9A64A" d="M9.622,25.659c0.104-0.104,0.311,0,0.414,0.207
		c0,0.207-0.104,0.31-0.311,0.414c-0.104,0-0.31-0.104-0.414-0.207C9.312,25.865,9.415,25.659,9.622,25.659z"/>
	<path opacity="0.86" fill-rule="evenodd" clip-rule="evenodd" fill="#F9A64A" d="M9.932,24.727c0.207,0,0.414,0.104,0.414,0.207
		c0.104,0.207,0,0.414-0.207,0.414c-0.207,0.104-0.311,0-0.414-0.207C9.725,25.038,9.829,24.831,9.932,24.727z"/>
	<path opacity="0.86" fill-rule="evenodd" clip-rule="evenodd" fill="#F9A64A" d="M10.346,23.9c0.104-0.104,0.31,0,0.31,0.207
		c0.104,0.207,0,0.31-0.207,0.414c-0.104,0-0.311,0-0.414-0.208C10.036,24.106,10.139,23.9,10.346,23.9z"/>
	<path opacity="0.86" fill-rule="evenodd" clip-rule="evenodd" fill="#F9A64A" d="M10.863,22.865c0.207-0.104,0.311,0,0.414,0.207
		c0,0.207-0.104,0.311-0.207,0.414c-0.207,0.104-0.414-0.104-0.414-0.207C10.553,23.072,10.656,22.865,10.863,22.865z"/>
	<path opacity="0.86" fill-rule="evenodd" clip-rule="evenodd" fill="#F9A64A" d="M11.381,21.934c0.104,0,0.207,0.104,0.31,0.31
		c0.104,0.104-0.104,0.311-0.207,0.311c-0.104,0.104-0.311,0-0.414-0.207C11.07,22.244,11.174,22.038,11.381,21.934z"/>
	<path opacity="0.86" fill-rule="evenodd" clip-rule="evenodd" fill="#F9A64A" d="M12.001,20.589
		c0.207-0.104,0.517,0.104,0.621,0.31c0.104,0.311-0.104,0.621-0.311,0.725c-0.31,0.104-0.621-0.104-0.724-0.414
		C11.484,21.002,11.691,20.692,12.001,20.589z"/>
	<path opacity="0.86" fill-rule="evenodd" clip-rule="evenodd" fill="#F9A64A" d="M12.519,19.658
		c0.311-0.104,0.621,0.104,0.724,0.311c0.104,0.31-0.104,0.621-0.31,0.621c-0.311,0.104-0.621,0-0.725-0.311
		C12.105,20.072,12.312,19.761,12.519,19.658z"/>
	<path opacity="0.86" fill-rule="evenodd" clip-rule="evenodd" fill="#F9A64A" d="M13.243,18.624
		c0.311-0.104,0.518,0.103,0.621,0.31c0.103,0.31-0.104,0.621-0.311,0.724c-0.311,0.104-0.621-0.104-0.724-0.414
		C12.829,18.934,12.933,18.726,13.243,18.624z"/>
	<path opacity="0.86" fill-rule="evenodd" clip-rule="evenodd" fill="#F9A64A" d="M14.07,17.278
		c0.311-0.104,0.621,0.104,0.725,0.414c0.104,0.207-0.104,0.518-0.414,0.621c-0.311,0.103-0.621-0.104-0.621-0.414
		C13.657,17.692,13.76,17.381,14.07,17.278z"/>
	<path opacity="0.86" fill-rule="evenodd" clip-rule="evenodd" fill="#F9A64A" d="M14.898,15.933
		c0.31-0.104,0.724,0.104,0.828,0.518c0.104,0.31-0.104,0.724-0.414,0.827c-0.414,0.104-0.828-0.104-0.931-0.414
		C14.277,16.451,14.484,16.037,14.898,15.933z"/>
	<path opacity="0.86" fill-rule="evenodd" clip-rule="evenodd" fill="#F9A64A" d="M16.036,14.691
		c0.414-0.104,0.828,0.103,0.931,0.517c0.104,0.311-0.104,0.725-0.517,0.828c-0.311,0.104-0.724-0.104-0.828-0.414
		C15.519,15.208,15.726,14.794,16.036,14.691z"/>
	<path opacity="0.86" fill-rule="evenodd" clip-rule="evenodd" fill="#F9A64A" d="M17.278,13.243
		c0.414-0.104,0.724,0.207,0.931,0.517c0.104,0.311-0.104,0.724-0.517,0.828c-0.311,0.104-0.725-0.104-0.828-0.414
		C16.761,13.76,16.967,13.45,17.278,13.243z"/>
	<path opacity="0.86" fill-rule="evenodd" clip-rule="evenodd" fill="#F9A64A" d="M18.313,12.208
		c0.414-0.104,0.828,0.104,0.931,0.518c0.104,0.311-0.104,0.724-0.517,0.827c-0.414,0.104-0.725-0.104-0.828-0.414
		C17.795,12.726,18.002,12.312,18.313,12.208z"/>
	<path opacity="0.86" fill-rule="evenodd" clip-rule="evenodd" fill="#F9A64A" d="M19.347,11.174
		c0.414-0.104,0.828,0.103,0.931,0.414c0.103,0.414-0.104,0.828-0.517,0.931c-0.311,0.104-0.725-0.104-0.828-0.518
		C18.83,11.691,19.037,11.277,19.347,11.174z"/>
	<path opacity="0.86" fill-rule="evenodd" clip-rule="evenodd" fill="#F9A64A" d="M20.485,10.243c0.414,0,0.725,0.104,0.828,0.518
		c0.104,0.31-0.103,0.621-0.414,0.724s-0.724-0.104-0.724-0.414C20.071,10.76,20.175,10.346,20.485,10.243z"/>
	<path opacity="0.86" fill-rule="evenodd" clip-rule="evenodd" fill="#F9A64A" d="M21.727,9.622c0.207-0.104,0.518,0,0.621,0.31
		c0,0.311-0.103,0.621-0.31,0.621c-0.311,0.104-0.621,0-0.725-0.311C21.209,9.932,21.416,9.622,21.727,9.622z"/>
	<path opacity="0.86" fill-rule="evenodd" clip-rule="evenodd" fill="#F9A64A" d="M22.761,9.001c0.207-0.104,0.414,0.103,0.517,0.31
		c0.104,0.207-0.103,0.414-0.31,0.517s-0.518-0.104-0.518-0.311C22.347,9.312,22.451,9.104,22.761,9.001z"/>
	<path opacity="0.86" fill-rule="evenodd" clip-rule="evenodd" fill="#F9A64A" d="M23.899,8.277c0.207,0,0.414,0.104,0.517,0.311
		c0.104,0.311-0.104,0.517-0.31,0.517c-0.207,0.104-0.518,0-0.518-0.207C23.485,8.691,23.589,8.38,23.899,8.277z"/>
	<path opacity="0.86" fill-rule="evenodd" clip-rule="evenodd" fill="#F9A64A" d="M24.624,7.656
		c0.311-0.104,0.518,0.104,0.621,0.311c0.103,0.207-0.104,0.518-0.311,0.518c-0.207,0.104-0.414,0-0.518-0.311
		C24.313,7.966,24.52,7.759,24.624,7.656z"/>
	<path opacity="0.86" fill-rule="evenodd" clip-rule="evenodd" fill="#F9A64A" d="M25.658,7.139c0.207,0,0.414,0.104,0.414,0.207
		c0.104,0.207,0,0.414-0.207,0.517c-0.104,0-0.311-0.104-0.414-0.311C25.451,7.449,25.555,7.242,25.658,7.139z"/>
	<path opacity="0.86" fill-rule="evenodd" clip-rule="evenodd" fill="#F9A64A" d="M26.589,6.725c0.104,0,0.311,0.104,0.311,0.207
		c0.104,0.207,0,0.31-0.207,0.414c-0.104,0-0.311-0.104-0.414-0.207C26.279,6.932,26.382,6.829,26.589,6.725z"/>
	<path opacity="0.86" fill-rule="evenodd" clip-rule="evenodd" fill="#F9A64A" d="M27.313,6.311c0.207-0.104,0.414,0,0.414,0.207
		c0.104,0.207,0,0.311-0.207,0.414c-0.207,0-0.414-0.104-0.414-0.207C27.003,6.518,27.107,6.311,27.313,6.311z"/>
	<path opacity="0.86" fill-rule="evenodd" clip-rule="evenodd" fill="#F9A64A" d="M28.142,5.793c0.207-0.103,0.414,0,0.414,0.207
		c0.103,0.207,0,0.414-0.207,0.414c-0.207,0.104-0.31,0-0.414-0.207C27.935,6,27.935,5.793,28.142,5.793z"/>
	<path opacity="0.86" fill-rule="evenodd" clip-rule="evenodd" fill="#F9A64A" d="M28.969,5.38c0.207,0,0.311,0,0.414,0.206
		C29.383,5.793,29.279,6,29.176,6c-0.207,0.104-0.311,0-0.414-0.207C28.762,5.586,28.865,5.484,28.969,5.38z"/>
	<path opacity="0.86" fill-rule="evenodd" clip-rule="evenodd" fill="#F9A64A" d="M29.9,5.173c0-0.104,0.207,0,0.207,0.104
		s0,0.207-0.104,0.207s-0.207,0-0.311-0.104C29.693,5.277,29.796,5.173,29.9,5.173z"/>
	<path opacity="0.86" fill-rule="evenodd" clip-rule="evenodd" fill="#F9A64A" d="M30.624,4.759c0.104,0,0.207,0.104,0.207,0.207
		c0.104,0.104,0,0.207-0.104,0.207s-0.207,0-0.207-0.104C30.417,4.966,30.521,4.863,30.624,4.759z"/>
	<path opacity="0.86" fill-rule="evenodd" clip-rule="evenodd" fill="#F9A64A" d="M31.349,4.552c0.104-0.104,0.207,0,0.31,0.104
		c0,0.104-0.104,0.207-0.207,0.207c-0.104,0-0.207,0-0.207-0.104S31.245,4.552,31.349,4.552z"/>
	<path opacity="0.86" fill-rule="evenodd" clip-rule="evenodd" fill="#F9A64A" d="M32.28,4.242c0.104,0,0.207,0,0.207,0.104
		c0,0.103,0,0.207-0.104,0.31c-0.104,0-0.207-0.104-0.311-0.207C32.073,4.346,32.176,4.242,32.28,4.242z"/>
	<path opacity="0.86" fill-rule="evenodd" clip-rule="evenodd" fill="#F9A64A" d="M32.797,4.035c0.104,0,0.207,0,0.311,0.104
		c0,0.103-0.104,0.207-0.207,0.31c-0.104,0-0.207-0.103-0.207-0.207C32.693,4.242,32.693,4.035,32.797,4.035z"/>
	<path opacity="0.86" fill-rule="evenodd" clip-rule="evenodd" fill="#F9A64A" d="M33.521,3.725c0.103,0,0.207,0,0.207,0.103
		c0.104,0.104,0,0.207-0.104,0.311c-0.103,0-0.207-0.104-0.207-0.207C33.314,3.828,33.418,3.725,33.521,3.725z"/>
	<path opacity="0.86" fill-rule="evenodd" clip-rule="evenodd" fill="#FFCA05" d="M7.139,32.901c0.104,0,0.104,0.103,0.104,0.103
		c0,0.104,0,0.208-0.104,0.208s-0.104-0.104-0.104-0.104C7.035,33.004,7.035,32.901,7.139,32.901z"/>
	<path opacity="0.86" fill-rule="evenodd" clip-rule="evenodd" fill="#FFCA05" d="M7.553,32.073l0.103,0.104
		c0,0.104-0.103,0.207-0.103,0.207c-0.104,0-0.207-0.104-0.207-0.104C7.346,32.176,7.449,32.073,7.553,32.073z"/>
	<path opacity="0.86" fill-rule="evenodd" clip-rule="evenodd" fill="#FFCA05" d="M8.07,31.245l0.104,0.104
		c0,0.103-0.104,0.207-0.104,0.207c-0.104,0-0.207-0.104-0.207-0.104C7.863,31.349,7.966,31.245,8.07,31.245z"/>
	<path opacity="0.86" fill-rule="evenodd" clip-rule="evenodd" fill="#FFCA05" d="M8.277,30.728c0.104,0,0.104,0.104,0.207,0.104
		c0,0.104-0.104,0.207-0.207,0.207s-0.104-0.103-0.104-0.103C8.173,30.832,8.173,30.728,8.277,30.728z"/>
	<path opacity="0.86" fill-rule="evenodd" clip-rule="evenodd" fill="#FFCA05" d="M8.69,30.107c0.104,0,0.207,0,0.207,0.104
		c0,0.104-0.104,0.207-0.104,0.207c-0.104,0-0.207-0.103-0.207-0.207L8.69,30.107z"/>
	<path opacity="0.86" fill-rule="evenodd" clip-rule="evenodd" fill="#FFCA05" d="M9.104,29.383c0.104-0.104,0.207,0,0.207,0.104
		s-0.104,0.207-0.207,0.207s-0.104,0-0.207-0.104C8.897,29.487,9.001,29.383,9.104,29.383z"/>
	<path opacity="0.86" fill-rule="evenodd" clip-rule="evenodd" fill="#FFCA05" d="M9.415,28.866c0.103-0.104,0.207,0,0.207,0.104
		s-0.104,0.207-0.207,0.207c-0.104,0-0.207-0.104-0.207-0.207S9.312,28.866,9.415,28.866z"/>
	<path opacity="0.86" fill-rule="evenodd" clip-rule="evenodd" fill="#FFCA05" d="M9.829,28.038c0.104,0,0.207,0.104,0.207,0.207
		c0,0.104-0.104,0.207-0.207,0.207s-0.207,0-0.207-0.207C9.622,28.142,9.725,28.038,9.829,28.038z"/>
	<path opacity="0.86" fill-rule="evenodd" clip-rule="evenodd" fill="#FFCA05" d="M10.243,27.417c0.104-0.104,0.207,0,0.207,0.207
		c0,0.103-0.104,0.103-0.207,0.207c-0.104,0-0.207-0.104-0.207-0.207C10.036,27.521,10.139,27.417,10.243,27.417z"/>
	<path opacity="0.86" fill-rule="evenodd" clip-rule="evenodd" fill="#FFCA05" d="M10.76,26.589c0.207-0.104,0.207,0,0.207,0.104
		c0.104,0.104,0,0.207-0.104,0.207c-0.207,0-0.207-0.104-0.31-0.207C10.553,26.589,10.656,26.589,10.76,26.589z"/>
	<path opacity="0.86" fill-rule="evenodd" clip-rule="evenodd" fill="#FFCA05" d="M11.381,25.865c0,0,0.104,0.104,0.104,0.207
		c0,0.103-0.104,0.207-0.104,0.207c-0.104,0-0.207-0.104-0.207-0.207C11.174,25.969,11.174,25.865,11.381,25.865z"/>
	<path opacity="0.86" fill-rule="evenodd" clip-rule="evenodd" fill="#FFCA05" d="M11.794,25.141c0.104,0,0.207,0.104,0.207,0.207
		s0,0.207-0.104,0.207s-0.311-0.103-0.311-0.207S11.691,25.141,11.794,25.141z"/>
	<path opacity="0.86" fill-rule="evenodd" clip-rule="evenodd" fill="#FFCA05" d="M12.415,24.417c0.207,0,0.311,0.104,0.311,0.311
		c0,0.104-0.104,0.311-0.311,0.311c-0.104,0-0.31-0.104-0.31-0.311C12.105,24.521,12.208,24.417,12.415,24.417z"/>
	<path opacity="0.86" fill-rule="evenodd" clip-rule="evenodd" fill="#FFCA05" d="M13.036,23.692c0.104,0,0.311,0.104,0.311,0.31
		c0,0.208-0.104,0.311-0.311,0.311c-0.207,0-0.31-0.103-0.31-0.311C12.622,23.796,12.829,23.692,13.036,23.692z"/>
	<path opacity="0.86" fill-rule="evenodd" clip-rule="evenodd" fill="#FFCA05" d="M13.553,22.865c0.104,0,0.311,0.104,0.311,0.311
		s-0.207,0.311-0.311,0.311c-0.207,0-0.311-0.104-0.311-0.311C13.243,23.072,13.346,22.865,13.553,22.865z"/>
	<path opacity="0.86" fill-rule="evenodd" clip-rule="evenodd" fill="#FFCA05" d="M14.277,22.038c0.207,0,0.311,0.103,0.311,0.206
		c0,0.207-0.104,0.414-0.311,0.414c-0.104,0-0.311-0.207-0.311-0.31C13.967,22.244,14.07,22.038,14.277,22.038z"/>
	<path opacity="0.86" fill-rule="evenodd" clip-rule="evenodd" fill="#FFCA05" d="M14.898,21.209c0.207,0,0.414,0.207,0.414,0.311
		c0,0.207-0.104,0.414-0.311,0.414c-0.207,0-0.31-0.207-0.414-0.311C14.588,21.417,14.795,21.209,14.898,21.209z"/>
	<path opacity="0.86" fill-rule="evenodd" clip-rule="evenodd" fill="#FFCA05" d="M15.933,20.072c0.207,0,0.518,0.207,0.518,0.517
		c0,0.31-0.207,0.517-0.518,0.517c-0.207,0.104-0.517-0.207-0.517-0.517C15.416,20.278,15.623,20.072,15.933,20.072z"/>
	<path opacity="0.86" fill-rule="evenodd" clip-rule="evenodd" fill="#FFCA05" d="M16.761,19.244c0.207,0,0.517,0.207,0.517,0.518
		s-0.207,0.517-0.517,0.517c-0.311,0.104-0.518-0.207-0.518-0.414C16.14,19.554,16.45,19.244,16.761,19.244z"/>
	<path opacity="0.86" fill-rule="evenodd" clip-rule="evenodd" fill="#FFCA05" d="M17.588,18.416c0.311,0,0.517,0.208,0.517,0.518
		s-0.104,0.517-0.414,0.621c-0.311,0-0.621-0.207-0.621-0.518S17.278,18.416,17.588,18.416z"/>
	<path opacity="0.86" fill-rule="evenodd" clip-rule="evenodd" fill="#FFCA05" d="M18.727,17.381c0.31,0,0.621,0.207,0.621,0.518
		c0,0.207-0.207,0.517-0.517,0.517c-0.311,0-0.621-0.207-0.621-0.517C18.209,17.692,18.416,17.381,18.727,17.381z"/>
	<path opacity="0.86" fill-rule="evenodd" clip-rule="evenodd" fill="#FFCA05" d="M19.864,16.244
		c0.311-0.104,0.621,0.207,0.724,0.621c0,0.414-0.31,0.724-0.724,0.828c-0.31,0-0.724-0.311-0.724-0.725
		C19.14,16.554,19.451,16.244,19.864,16.244z"/>
	<path opacity="0.86" fill-rule="evenodd" clip-rule="evenodd" fill="#FFCA05" d="M21.313,15.312c0.414,0,0.725,0.311,0.725,0.621
		c0,0.414-0.311,0.724-0.725,0.724c-0.31,0.104-0.724-0.207-0.724-0.621S20.899,15.312,21.313,15.312z"/>
	<path opacity="0.86" fill-rule="evenodd" clip-rule="evenodd" fill="#FFCA05" d="M22.761,14.174c0.414,0,0.724,0.31,0.828,0.724
		c0,0.414-0.311,0.724-0.724,0.724c-0.414,0-0.724-0.207-0.724-0.621C22.141,14.588,22.347,14.174,22.761,14.174z"/>
	<path opacity="0.86" fill-rule="evenodd" clip-rule="evenodd" fill="#FFCA05" d="M24.106,13.45c0.414,0,0.724,0.207,0.724,0.621
		c0,0.414-0.311,0.724-0.724,0.724c-0.311,0.104-0.725-0.207-0.725-0.62C23.382,13.76,23.692,13.45,24.106,13.45z"/>
	<path opacity="0.86" fill-rule="evenodd" clip-rule="evenodd" fill="#FFCA05" d="M25.348,12.623c0.414,0,0.725,0.311,0.725,0.724
		c0,0.31-0.311,0.724-0.621,0.724c-0.414,0-0.828-0.311-0.828-0.621C24.624,13.037,24.934,12.623,25.348,12.623z"/>
	<path opacity="0.86" fill-rule="evenodd" clip-rule="evenodd" fill="#FFCA05" d="M26.693,12.105
		c0.311-0.104,0.621,0.207,0.621,0.518c0,0.414-0.31,0.724-0.517,0.724c-0.414,0-0.724-0.207-0.724-0.621
		C26.072,12.416,26.382,12.105,26.693,12.105z"/>
	<path opacity="0.86" fill-rule="evenodd" clip-rule="evenodd" fill="#FFCA05" d="M27.935,11.588c0.31,0,0.517,0.207,0.517,0.517
		s-0.207,0.518-0.517,0.621c-0.207,0-0.518-0.207-0.518-0.518S27.624,11.691,27.935,11.588z"/>
	<path opacity="0.86" fill-rule="evenodd" clip-rule="evenodd" fill="#FFCA05" d="M29.072,11.277c0.207,0,0.414,0.207,0.518,0.414
		c0,0.311-0.207,0.518-0.414,0.518s-0.414-0.207-0.518-0.414C28.658,11.484,28.865,11.277,29.072,11.277z"/>
	<path opacity="0.86" fill-rule="evenodd" clip-rule="evenodd" fill="#FFCA05" d="M30.314,10.967
		c0.207-0.104,0.517,0.103,0.517,0.31c0,0.311-0.207,0.517-0.414,0.517c-0.311,0-0.518-0.207-0.518-0.414
		C29.9,11.174,30.107,10.967,30.314,10.967z"/>
	<path opacity="0.86" fill-rule="evenodd" clip-rule="evenodd" fill="#FFCA05" d="M31.245,10.45c0.31,0,0.517,0.207,0.517,0.414
		c0,0.311-0.207,0.414-0.414,0.517c-0.207,0-0.414-0.207-0.414-0.414S31.038,10.553,31.245,10.45z"/>
	<path opacity="0.86" fill-rule="evenodd" clip-rule="evenodd" fill="#FFCA05" d="M32.383,10.243c0.207,0,0.414,0.104,0.414,0.311
		s-0.207,0.414-0.31,0.414c-0.207,0-0.414-0.207-0.414-0.311C32.073,10.45,32.176,10.243,32.383,10.243z"/>
	<path opacity="0.86" fill-rule="evenodd" clip-rule="evenodd" fill="#FFCA05" d="M33.314,10.036c0.207,0,0.31,0.104,0.31,0.311
		s-0.103,0.311-0.31,0.311c-0.104,0-0.311-0.104-0.311-0.311S33.107,10.036,33.314,10.036z"/>
	<path opacity="0.86" fill-rule="evenodd" clip-rule="evenodd" fill="#FFCA05" d="M34.142,9.725c0.207,0,0.414,0.104,0.414,0.311
		s-0.207,0.311-0.31,0.414c-0.207,0-0.414-0.207-0.414-0.311C33.832,9.932,34.039,9.725,34.142,9.725z"/>
	<path opacity="0.86" fill-rule="evenodd" clip-rule="evenodd" fill="#FFCA05" d="M35.177,9.415c0.104,0,0.311,0.207,0.311,0.31
		c0,0.207-0.104,0.414-0.311,0.414s-0.311-0.104-0.414-0.311C34.763,9.622,34.97,9.518,35.177,9.415z"/>
	<path opacity="0.86" fill-rule="evenodd" clip-rule="evenodd" fill="#FFCA05" d="M36.004,9.312
		c0.207-0.104,0.311,0.104,0.311,0.311c0,0.207-0.104,0.31-0.311,0.31s-0.311-0.104-0.311-0.31
		C35.694,9.415,35.797,9.312,36.004,9.312z"/>
	<path opacity="0.86" fill-rule="evenodd" clip-rule="evenodd" fill="#FFCA05" d="M36.935,9.208c0.104,0,0.207,0.104,0.207,0.207
		c0,0.103-0.104,0.207-0.207,0.207c-0.103,0-0.207-0.104-0.207-0.207C36.729,9.312,36.832,9.208,36.935,9.208z"/>
	<path opacity="0.86" fill-rule="evenodd" clip-rule="evenodd" fill="#FFCA05" d="M37.763,9.104c0.104,0,0.104,0.104,0.104,0.207
		c0.103,0.104,0,0.207-0.104,0.207s-0.207-0.103-0.207-0.207S37.66,9.104,37.763,9.104z"/>
	<path opacity="0.86" fill-rule="evenodd" clip-rule="evenodd" fill="#FFCA05" d="M38.591,9.001c0.104,0,0.207,0.103,0.207,0.207
		s-0.104,0.104-0.207,0.104c-0.104,0.104-0.207,0-0.207-0.104S38.487,9.001,38.591,9.001z"/>
	<path opacity="0.86" fill-rule="evenodd" clip-rule="evenodd" fill="#FFCA05" d="M39.418,8.898c0.104,0,0.207,0.104,0.207,0.207
		c0,0.104,0,0.207-0.104,0.207s-0.207-0.104-0.207-0.207C39.315,9.104,39.315,9.001,39.418,8.898z"/>
	<path opacity="0.86" fill-rule="evenodd" clip-rule="evenodd" fill="#FFCA05" d="M40.039,8.898c0.104,0,0.207,0.104,0.207,0.207
		c0,0-0.104,0.104-0.207,0.104c-0.103,0-0.103-0.104-0.103-0.104C39.936,9.001,39.936,8.898,40.039,8.898z"/>
	<path opacity="0.86" fill-rule="evenodd" clip-rule="evenodd" fill="#FFCA05" d="M40.867,8.794c0.103,0,0.207,0,0.207,0.104
		c0,0.207-0.104,0.207-0.207,0.207c-0.104,0-0.207,0-0.207-0.103C40.66,8.898,40.764,8.794,40.867,8.794z"/>
	<path opacity="0.86" fill-rule="evenodd" clip-rule="evenodd" fill="#817DA8" d="M6.518,35.383c0.103,0,0.103,0.104,0.103,0.207
		c0,0,0,0.104-0.103,0.104L6.415,35.59C6.415,35.487,6.518,35.383,6.518,35.383z"/>
	<path opacity="0.86" fill-rule="evenodd" clip-rule="evenodd" fill="#817DA8" d="M6.828,34.867c0.104,0,0.104,0,0.104,0.104
		c0.104,0,0,0.104-0.104,0.104L6.725,34.97C6.725,34.867,6.828,34.867,6.828,34.867z"/>
	<path opacity="0.86" fill-rule="evenodd" clip-rule="evenodd" fill="#817DA8" d="M7.242,34.142c0,0,0.104,0.104,0.104,0.207
		c0,0,0,0.104-0.104,0.104s-0.104-0.104-0.104-0.104C7.139,34.246,7.139,34.142,7.242,34.142z"/>
	<path opacity="0.86" fill-rule="evenodd" clip-rule="evenodd" fill="#817DA8" d="M7.449,33.728c0.104,0,0.104,0.104,0.104,0.104
		c0,0.104,0,0.104-0.104,0.104s-0.104,0-0.104-0.104C7.346,33.832,7.346,33.728,7.449,33.728z"/>
	<path opacity="0.86" fill-rule="evenodd" clip-rule="evenodd" fill="#817DA8" d="M7.759,33.211c0.104,0,0.207,0.104,0.207,0.104
		c0,0.104-0.104,0.104-0.104,0.104c-0.104,0-0.207,0-0.207-0.104L7.759,33.211z"/>
	<path opacity="0.86" fill-rule="evenodd" clip-rule="evenodd" fill="#817DA8" d="M8.173,32.694c0.104,0,0.104,0.104,0.104,0.104
		c0,0.104,0,0.207-0.104,0.207s-0.207-0.103-0.207-0.103C7.966,32.797,8.07,32.694,8.173,32.694z"/>
	<path opacity="0.86" fill-rule="evenodd" clip-rule="evenodd" fill="#817DA8" d="M8.38,32.28c0.104,0,0.207,0,0.207,0.104
		S8.484,32.59,8.484,32.59c-0.104,0-0.207-0.104-0.207-0.207S8.38,32.28,8.38,32.28z"/>
	<path opacity="0.86" fill-rule="evenodd" clip-rule="evenodd" fill="#817DA8" d="M8.794,31.659c0.104,0,0.104,0.104,0.104,0.207
		c0,0,0,0.104-0.104,0.104s-0.207,0-0.207-0.104S8.69,31.659,8.794,31.659z"/>
	<path opacity="0.86" fill-rule="evenodd" clip-rule="evenodd" fill="#817DA8" d="M9.104,31.142c0.104,0,0.104,0,0.104,0.104
		s0,0.207-0.104,0.207s-0.207-0.103-0.207-0.207S9.001,31.142,9.104,31.142z"/>
	<path opacity="0.86" fill-rule="evenodd" clip-rule="evenodd" fill="#817DA8" d="M9.518,30.417c0.104,0,0.104,0.104,0.104,0.207
		s0,0.104-0.104,0.104c-0.103,0.104-0.207,0-0.207-0.104S9.415,30.417,9.518,30.417z"/>
	<path opacity="0.86" fill-rule="evenodd" clip-rule="evenodd" fill="#817DA8" d="M9.932,29.9c0.104,0,0.207,0.104,0.207,0.207
		c0,0.104-0.104,0.104-0.207,0.104s-0.104,0-0.104-0.104C9.829,30.004,9.829,29.9,9.932,29.9z"/>
	<path opacity="0.86" fill-rule="evenodd" clip-rule="evenodd" fill="#817DA8" d="M10.346,29.383c0.104,0,0.207,0,0.207,0.104
		s-0.104,0.207-0.104,0.207c-0.104,0-0.207-0.104-0.207-0.207L10.346,29.383z"/>
	<path opacity="0.86" fill-rule="evenodd" clip-rule="evenodd" fill="#817DA8" d="M10.863,28.762c0.104,0,0.311,0.104,0.311,0.207
		c0,0.207-0.104,0.311-0.311,0.311c-0.104,0-0.207-0.104-0.31-0.207C10.553,28.866,10.76,28.866,10.863,28.762z"/>
	<path opacity="0.86" fill-rule="evenodd" clip-rule="evenodd" fill="#817DA8" d="M11.381,28.245c0,0,0.207,0.104,0.207,0.207
		c0,0.207-0.103,0.311-0.207,0.311c-0.207,0-0.311-0.104-0.311-0.311C11.07,28.348,11.174,28.245,11.381,28.245z"/>
	<path opacity="0.86" fill-rule="evenodd" clip-rule="evenodd" fill="#817DA8" d="M11.691,27.625c0.207,0,0.311,0.103,0.311,0.207
		c0,0.207-0.104,0.31-0.311,0.31c-0.104,0-0.207-0.104-0.207-0.31C11.484,27.728,11.587,27.625,11.691,27.625z"/>
	<path opacity="0.86" fill-rule="evenodd" clip-rule="evenodd" fill="#817DA8" d="M12.415,26.9c0.104,0,0.207,0.104,0.207,0.207
		c0,0.207-0.104,0.311-0.207,0.311c-0.207,0-0.31-0.104-0.31-0.207C12.105,27.003,12.208,26.9,12.415,26.9z"/>
	<path opacity="0.86" fill-rule="evenodd" clip-rule="evenodd" fill="#817DA8" d="M12.933,26.382c0.103,0,0.207,0.104,0.207,0.207
		c0.104,0.104-0.104,0.207-0.207,0.207c-0.104,0-0.311-0.104-0.311-0.207S12.726,26.382,12.933,26.382z"/>
	<path opacity="0.86" fill-rule="evenodd" clip-rule="evenodd" fill="#817DA8" d="M13.657,25.348c0.207,0,0.414,0.207,0.517,0.517
		c0,0.207-0.207,0.414-0.517,0.414c-0.104,0-0.311-0.207-0.311-0.414C13.346,25.659,13.45,25.452,13.657,25.348z"/>
	<path opacity="0.86" fill-rule="evenodd" clip-rule="evenodd" fill="#817DA8" d="M14.381,24.727c0.207,0,0.414,0.207,0.414,0.414
		c0,0.311-0.207,0.518-0.414,0.518s-0.414-0.207-0.414-0.414C13.864,24.934,14.07,24.727,14.381,24.727z"/>
	<path opacity="0.86" fill-rule="evenodd" clip-rule="evenodd" fill="#817DA8" d="M15.105,24.106c0.207,0,0.414,0.207,0.414,0.414
		c0,0.207-0.207,0.414-0.414,0.414c-0.207,0-0.414-0.104-0.414-0.414C14.588,24.313,14.795,24.106,15.105,24.106z"/>
	<path opacity="0.86" fill-rule="evenodd" clip-rule="evenodd" fill="#817DA8" d="M15.933,23.279c0.311,0,0.518,0.207,0.518,0.414
		c0,0.31-0.207,0.518-0.414,0.518c-0.207,0-0.414-0.208-0.414-0.414C15.623,23.486,15.83,23.279,15.933,23.279z"/>
	<path opacity="0.86" fill-rule="evenodd" clip-rule="evenodd" fill="#817DA8" d="M16.864,22.348c0.311,0,0.621,0.31,0.621,0.621
		s-0.311,0.621-0.621,0.621c-0.31,0-0.517-0.311-0.517-0.621C16.243,22.658,16.554,22.348,16.864,22.348z"/>
	<path opacity="0.86" fill-rule="evenodd" clip-rule="evenodd" fill="#817DA8" d="M18.002,21.727c0.311,0,0.621,0.207,0.621,0.517
		c0,0.311-0.207,0.518-0.518,0.518c-0.31,0.104-0.621-0.207-0.621-0.518C17.485,21.934,17.795,21.727,18.002,21.727z"/>
	<path opacity="0.86" fill-rule="evenodd" clip-rule="evenodd" fill="#817DA8" d="M19.244,20.899
		c0.311-0.103,0.621,0.207,0.621,0.518s-0.207,0.621-0.517,0.621s-0.621-0.311-0.621-0.621S18.933,20.899,19.244,20.899z"/>
	<path opacity="0.86" fill-rule="evenodd" clip-rule="evenodd" fill="#817DA8" d="M20.278,20.278
		c0.31-0.103,0.517,0.207,0.621,0.518c0,0.31-0.311,0.621-0.621,0.621c-0.207,0-0.517-0.311-0.517-0.621
		C19.761,20.485,19.968,20.278,20.278,20.278z"/>
	<path opacity="0.86" fill-rule="evenodd" clip-rule="evenodd" fill="#817DA8" d="M21.313,19.658c0.311,0,0.621,0.207,0.621,0.518
		c0,0.31-0.311,0.621-0.621,0.621c-0.31,0-0.517-0.311-0.517-0.621C20.692,19.968,21.002,19.658,21.313,19.658z"/>
	<path opacity="0.86" fill-rule="evenodd" clip-rule="evenodd" fill="#817DA8" d="M22.347,19.244c0.311,0,0.518,0.207,0.518,0.518
		c0,0.207-0.207,0.414-0.518,0.414c-0.207,0-0.414-0.104-0.414-0.414S22.141,19.244,22.347,19.244z"/>
	<path opacity="0.86" fill-rule="evenodd" clip-rule="evenodd" fill="#817DA8" d="M23.382,18.934c0.207,0,0.414,0.103,0.414,0.414
		c0,0.207-0.207,0.414-0.414,0.414c-0.207,0-0.414-0.207-0.414-0.414S23.175,18.934,23.382,18.934z"/>
	<path opacity="0.86" fill-rule="evenodd" clip-rule="evenodd" fill="#817DA8" d="M24.313,18.624c0.207,0,0.311,0.207,0.311,0.413
		c0,0.207-0.104,0.311-0.311,0.311c-0.207,0-0.31-0.104-0.31-0.311C24.003,18.83,24.106,18.726,24.313,18.624z"/>
	<path opacity="0.86" fill-rule="evenodd" clip-rule="evenodd" fill="#817DA8" d="M25.245,18.313c0.207,0,0.414,0.207,0.414,0.413
		c0,0.208-0.104,0.311-0.311,0.311c-0.207,0-0.414-0.103-0.414-0.311C24.934,18.52,25.038,18.313,25.245,18.313z"/>
	<path opacity="0.86" fill-rule="evenodd" clip-rule="evenodd" fill="#817DA8" d="M26.072,18.002c0.207,0,0.414,0.207,0.414,0.311
		c0,0.207-0.207,0.413-0.414,0.413c-0.207,0-0.311-0.103-0.311-0.31C25.762,18.209,25.865,18.002,26.072,18.002z"/>
	<path opacity="0.86" fill-rule="evenodd" clip-rule="evenodd" fill="#817DA8" d="M26.9,17.899c0.207,0,0.31,0.104,0.31,0.207
		c0,0.208-0.103,0.311-0.31,0.311c-0.104,0-0.207-0.103-0.207-0.311C26.693,18.002,26.796,17.899,26.9,17.899z"/>
	<path opacity="0.86" fill-rule="evenodd" clip-rule="evenodd" fill="#817DA8" d="M27.728,17.692c0.104,0,0.207,0.104,0.207,0.207
		c0,0.207-0.104,0.311-0.207,0.311c-0.207,0-0.311-0.104-0.311-0.311C27.417,17.795,27.521,17.692,27.728,17.692z"/>
	<path opacity="0.86" fill-rule="evenodd" clip-rule="evenodd" fill="#817DA8" d="M28.348,17.485c0.207,0,0.31,0.104,0.31,0.311
		c0,0.104-0.103,0.207-0.207,0.207c-0.207,0-0.31-0.104-0.31-0.207C28.142,17.588,28.245,17.485,28.348,17.485z"/>
	<path opacity="0.86" fill-rule="evenodd" clip-rule="evenodd" fill="#817DA8" d="M29.072,17.278c0.207,0,0.311,0.104,0.311,0.311
		c0,0.104-0.104,0.311-0.207,0.311c-0.207,0-0.311-0.207-0.311-0.311S28.969,17.278,29.072,17.278z"/>
	<path opacity="0.86" fill-rule="evenodd" clip-rule="evenodd" fill="#817DA8" d="M29.796,17.174c0.207,0,0.311,0.104,0.311,0.311
		c0,0.104-0.104,0.207-0.311,0.207c-0.104,0-0.207-0.104-0.207-0.207C29.59,17.278,29.693,17.174,29.796,17.174z"/>
	<path opacity="0.86" fill-rule="evenodd" clip-rule="evenodd" fill="#817DA8" d="M30.521,17.174c0.103,0,0.207,0.104,0.207,0.104
		c0,0.104-0.104,0.207-0.104,0.207c-0.103,0-0.207-0.104-0.207-0.207L30.521,17.174z"/>
	<path opacity="0.86" fill-rule="evenodd" clip-rule="evenodd" fill="#817DA8" d="M31.142,17.071c0.104,0,0.207,0.103,0.207,0.207
		l-0.104,0.104c-0.104,0-0.104-0.104-0.104-0.104C31.142,17.174,31.142,17.071,31.142,17.071z"/>
	<path opacity="0.86" fill-rule="evenodd" clip-rule="evenodd" fill="#817DA8" d="M31.866,16.967c0.104,0,0.207,0.104,0.207,0.207
		c0,0-0.104,0.104-0.207,0.104s-0.104,0-0.104-0.104C31.762,17.071,31.762,16.967,31.866,16.967z"/>
	<path opacity="0.86" fill-rule="evenodd" clip-rule="evenodd" fill="#817DA8" d="M32.59,16.967c0.103,0,0.103,0,0.207,0.104
		c0,0.103-0.104,0.207-0.207,0.207c-0.104,0-0.207-0.104-0.207-0.207C32.383,16.967,32.487,16.967,32.59,16.967z"/>
	<path opacity="0.86" fill-rule="evenodd" clip-rule="evenodd" fill="#817DA8" d="M33.107,16.864c0.104,0,0.104,0.103,0.104,0.207
		c0,0.103,0,0.103-0.104,0.103s-0.207,0-0.207-0.103C32.9,16.967,33.004,16.864,33.107,16.864z"/>
	<path opacity="0.86" fill-rule="evenodd" clip-rule="evenodd" fill="#817DA8" d="M33.625,16.864c0.104,0,0.207,0,0.207,0.103
		c0,0.104-0.104,0.104-0.207,0.104c0,0-0.103,0-0.103-0.104C33.521,16.864,33.625,16.864,33.625,16.864z"/>
	<path opacity="0.86" fill-rule="evenodd" clip-rule="evenodd" fill="#A44685" d="M10.243,32.901c0.104,0,0.104,0.103,0.104,0.103
		c0,0.104-0.104,0.104-0.104,0.104c-0.104,0-0.104,0-0.104-0.104L10.243,32.901z"/>
	<path opacity="0.86" fill-rule="evenodd" clip-rule="evenodd" fill="#A44685" d="M10.656,32.383l0.104,0.104
		c0,0.104-0.104,0.104-0.104,0.104c-0.103,0-0.103-0.104-0.103-0.104C10.553,32.383,10.553,32.383,10.656,32.383z"/>
	<path opacity="0.86" fill-rule="evenodd" clip-rule="evenodd" fill="#A44685" d="M11.07,31.866c0.104,0,0.104,0.104,0.104,0.104
		c0,0.104,0,0.104-0.104,0.104c0,0-0.104,0-0.104-0.104L11.07,31.866z"/>
	<path opacity="0.86" fill-rule="evenodd" clip-rule="evenodd" fill="#A44685" d="M11.381,31.556c0,0,0,0,0,0.103v0.104
		c-0.104,0-0.104-0.104-0.104-0.104C11.277,31.556,11.277,31.556,11.381,31.556z"/>
	<path opacity="0.86" fill-rule="evenodd" clip-rule="evenodd" fill="#A44685" d="M11.691,31.142c0.104,0,0.104,0.104,0.104,0.104
		c0,0.104,0,0.104-0.104,0.104c0,0-0.104,0-0.104-0.104S11.691,31.142,11.691,31.142z"/>
	<path opacity="0.86" fill-rule="evenodd" clip-rule="evenodd" fill="#A44685" d="M12.105,30.728c0.103,0,0.207,0.104,0.103,0.207
		l-0.103,0.103c-0.104,0-0.207-0.103-0.104-0.207C12.001,30.728,12.001,30.728,12.105,30.728z"/>
	<path opacity="0.86" fill-rule="evenodd" clip-rule="evenodd" fill="#A44685" d="M12.415,30.417c0.104,0,0.104,0.104,0.104,0.104
		c0,0.104-0.104,0.207-0.104,0.104c-0.104,0-0.207,0-0.104-0.104C12.312,30.417,12.312,30.417,12.415,30.417z"/>
	<path opacity="0.86" fill-rule="evenodd" clip-rule="evenodd" fill="#A44685" d="M12.829,29.9c0.104,0,0.104,0.104,0.104,0.207
		c0,0.104-0.104,0.104-0.207,0.104c0,0-0.104-0.104-0.104-0.207C12.622,30.004,12.726,29.9,12.829,29.9z"/>
	<path opacity="0.86" fill-rule="evenodd" clip-rule="evenodd" fill="#A44685" d="M13.243,29.487c0,0,0.104,0.104,0.104,0.207
		c0,0-0.104,0.103-0.207,0.103s-0.104-0.103-0.104-0.207C13.036,29.59,13.139,29.487,13.243,29.487z"/>
	<path opacity="0.86" fill-rule="evenodd" clip-rule="evenodd" fill="#A44685" d="M13.657,28.969c0.104,0,0.104,0.104,0.104,0.104
		c0,0.104-0.104,0.207-0.104,0.207c-0.104-0.104-0.104-0.104-0.104-0.207S13.553,28.969,13.657,28.969z"/>
	<path opacity="0.86" fill-rule="evenodd" clip-rule="evenodd" fill="#A44685" d="M14.174,28.555c0,0.104,0.104,0.104,0.104,0.207
		s-0.104,0.104-0.207,0.104s-0.104-0.104-0.104-0.104C13.967,28.659,14.07,28.555,14.174,28.555z"/>
	<path opacity="0.86" fill-rule="evenodd" clip-rule="evenodd" fill="#A44685" d="M14.588,28.142c0.104,0,0.207,0.103,0.207,0.207
		c-0.104,0.104-0.104,0.104-0.207,0.104s-0.104-0.104-0.104-0.207C14.484,28.245,14.484,28.142,14.588,28.142z"/>
	<path opacity="0.86" fill-rule="evenodd" clip-rule="evenodd" fill="#A44685" d="M15.105,27.728c0.104,0,0.207,0.104,0.207,0.311
		c0,0.104-0.104,0.207-0.311,0.207c-0.103-0.103-0.207-0.207-0.103-0.31C14.898,27.832,15.001,27.728,15.105,27.728z"/>
	<path opacity="0.86" fill-rule="evenodd" clip-rule="evenodd" fill="#A44685" d="M15.623,27.314c0.104,0,0.207,0.104,0.207,0.207
		s-0.104,0.207-0.311,0.207c-0.104,0-0.207-0.103-0.104-0.207C15.416,27.314,15.519,27.21,15.623,27.314z"/>
	<path opacity="0.86" fill-rule="evenodd" clip-rule="evenodd" fill="#A44685" d="M16.036,26.796c0.207,0,0.207,0.104,0.207,0.311
		c0,0.104-0.104,0.207-0.207,0.104c-0.207,0-0.207-0.104-0.207-0.207S15.933,26.796,16.036,26.796z"/>
	<path opacity="0.86" fill-rule="evenodd" clip-rule="evenodd" fill="#A44685" d="M16.761,26.382c0.103,0,0.207,0.104,0.207,0.207
		s-0.207,0.207-0.31,0.207c-0.104-0.104-0.207-0.104-0.207-0.207C16.45,26.382,16.657,26.279,16.761,26.382z"/>
	<path opacity="0.86" fill-rule="evenodd" clip-rule="evenodd" fill="#A44685" d="M17.278,25.865c0.207,0,0.311,0.207,0.207,0.31
		c0,0.104-0.104,0.207-0.207,0.207s-0.207-0.207-0.207-0.31C17.071,25.969,17.174,25.865,17.278,25.865z"/>
	<path opacity="0.86" fill-rule="evenodd" clip-rule="evenodd" fill="#A44685" d="M18.105,25.245c0.207,0,0.414,0.207,0.311,0.414
		c0,0.207-0.207,0.31-0.414,0.31c-0.103,0-0.31-0.207-0.31-0.414C17.795,25.348,18.002,25.141,18.105,25.245z"/>
	<path opacity="0.86" fill-rule="evenodd" clip-rule="evenodd" fill="#A44685" d="M18.83,24.727c0.207,0,0.31,0.207,0.31,0.414
		s-0.207,0.414-0.414,0.414c-0.207-0.103-0.414-0.31-0.311-0.517C18.416,24.831,18.623,24.727,18.83,24.727z"/>
	<path opacity="0.86" fill-rule="evenodd" clip-rule="evenodd" fill="#A44685" d="M19.554,24.313c0.207,0,0.31,0.208,0.31,0.414
		c0,0.207-0.207,0.311-0.414,0.311s-0.414-0.207-0.311-0.414C19.14,24.417,19.347,24.313,19.554,24.313z"/>
	<path opacity="0.86" fill-rule="evenodd" clip-rule="evenodd" fill="#A44685" d="M20.485,23.692
		c0.207,0.104,0.311,0.31,0.311,0.518c0,0.207-0.207,0.311-0.414,0.311c-0.207-0.104-0.31-0.208-0.31-0.414
		C20.175,23.796,20.278,23.692,20.485,23.692z"/>
	<path opacity="0.86" fill-rule="evenodd" clip-rule="evenodd" fill="#A44685" d="M21.416,23.072c0.311,0,0.518,0.311,0.414,0.621
		c0,0.208-0.311,0.414-0.621,0.414c-0.207,0-0.414-0.311-0.414-0.621C20.899,23.279,21.106,23.072,21.416,23.072z"/>
	<path opacity="0.86" fill-rule="evenodd" clip-rule="evenodd" fill="#A44685" d="M22.554,22.658c0.311,0,0.414,0.311,0.414,0.518
		c0,0.311-0.311,0.517-0.621,0.517c-0.207-0.103-0.414-0.31-0.31-0.621C22.037,22.761,22.347,22.554,22.554,22.658z"/>
	<path opacity="0.86" fill-rule="evenodd" clip-rule="evenodd" fill="#A44685" d="M23.796,22.141c0.311,0,0.414,0.207,0.414,0.517
		c0,0.311-0.31,0.518-0.621,0.414c-0.207,0-0.414-0.311-0.414-0.621C23.278,22.244,23.485,22.038,23.796,22.141z"/>
	<path opacity="0.86" fill-rule="evenodd" clip-rule="evenodd" fill="#A44685" d="M24.727,21.727c0.311,0,0.518,0.311,0.414,0.517
		c0,0.311-0.311,0.518-0.518,0.414c-0.311,0-0.414-0.31-0.414-0.517C24.209,21.934,24.52,21.727,24.727,21.727z"/>
	<path opacity="0.86" fill-rule="evenodd" clip-rule="evenodd" fill="#A44685" d="M25.762,21.417c0.311,0,0.414,0.311,0.414,0.518
		c0,0.31-0.311,0.414-0.621,0.414c-0.207-0.104-0.414-0.207-0.414-0.517C25.245,21.52,25.451,21.313,25.762,21.417z"/>
	<path opacity="0.86" fill-rule="evenodd" clip-rule="evenodd" fill="#A44685" d="M26.796,21.106
		c0.207,0.104,0.311,0.311,0.311,0.518c0,0.311-0.311,0.517-0.518,0.414c-0.207,0-0.414-0.207-0.311-0.518
		C26.279,21.313,26.486,21.106,26.796,21.106z"/>
	<path opacity="0.86" fill-rule="evenodd" clip-rule="evenodd" fill="#A44685" d="M27.728,21.002
		c0.207,0.104,0.311,0.207,0.311,0.414c-0.104,0.207-0.207,0.414-0.518,0.311c-0.104,0-0.311-0.207-0.207-0.414
		C27.313,21.106,27.521,21.002,27.728,21.002z"/>
	<path opacity="0.86" fill-rule="evenodd" clip-rule="evenodd" fill="#A44685" d="M28.555,21.002c0.207,0,0.31,0.207,0.31,0.311
		c-0.104,0.207-0.207,0.311-0.414,0.311c-0.104,0-0.31-0.207-0.207-0.414C28.245,21.106,28.348,20.899,28.555,21.002z"/>
	<path opacity="0.86" fill-rule="evenodd" clip-rule="evenodd" fill="#A44685" d="M29.486,20.899c0.104,0,0.207,0.104,0.207,0.311
		s-0.207,0.311-0.31,0.311c-0.207-0.104-0.311-0.207-0.311-0.414S29.279,20.796,29.486,20.899z"/>
	<path opacity="0.86" fill-rule="evenodd" clip-rule="evenodd" fill="#A44685" d="M30.21,20.692c0.207,0,0.311,0.207,0.207,0.31
		c0,0.207-0.104,0.311-0.311,0.311s-0.311-0.207-0.311-0.311C29.9,20.796,30.003,20.692,30.21,20.692z"/>
	<path opacity="0.86" fill-rule="evenodd" clip-rule="evenodd" fill="#A44685" d="M31.038,20.692c0.104,0,0.104,0.104,0.104,0.31
		c0,0.104-0.104,0.207-0.207,0.207c-0.104-0.104-0.207-0.207-0.207-0.311C30.728,20.796,30.831,20.692,31.038,20.692z"/>
	<path opacity="0.86" fill-rule="evenodd" clip-rule="evenodd" fill="#A44685" d="M31.659,20.589
		c0.104,0.104,0.207,0.207,0.207,0.31c0,0.104-0.207,0.207-0.311,0.207c-0.103,0-0.207-0.104-0.207-0.31
		C31.349,20.692,31.555,20.589,31.659,20.589z"/>
	<path opacity="0.86" fill-rule="evenodd" clip-rule="evenodd" fill="#A44685" d="M32.28,20.589c0.207,0,0.311,0.104,0.207,0.207
		c0,0.207-0.104,0.31-0.207,0.207c-0.207,0-0.207-0.104-0.207-0.207C32.073,20.692,32.176,20.589,32.28,20.589z"/>
	<path opacity="0.86" fill-rule="evenodd" clip-rule="evenodd" fill="#A44685" d="M33.004,20.485c0.104,0,0.207,0.207,0.207,0.311
		c0,0.103-0.104,0.207-0.311,0.207c-0.104,0-0.207-0.207-0.207-0.31C32.797,20.589,32.9,20.485,33.004,20.485z"/>
	<path opacity="0.86" fill-rule="evenodd" clip-rule="evenodd" fill="#A44685" d="M33.625,20.485c0.104,0,0.207,0.207,0.207,0.311
		c0,0.103-0.104,0.207-0.31,0.207c-0.104,0-0.207-0.207-0.207-0.31S33.521,20.485,33.625,20.485z"/>
	<path opacity="0.86" fill-rule="evenodd" clip-rule="evenodd" fill="#A44685" d="M34.246,20.589c0.104,0,0.104,0.104,0.104,0.207
		c0,0,0,0.103-0.104,0.103s-0.104-0.103-0.104-0.207L34.246,20.589z"/>
	<path opacity="0.86" fill-rule="evenodd" clip-rule="evenodd" fill="#A44685" d="M34.866,20.692c0.104,0,0.104,0,0.104,0.104
		c0,0.103-0.104,0.103-0.104,0.103c-0.104,0-0.207-0.103-0.104-0.103C34.763,20.692,34.763,20.589,34.866,20.692z"/>
	<path opacity="0.86" fill-rule="evenodd" clip-rule="evenodd" fill="#A44685" d="M35.487,20.692c0.103,0,0.103,0.104,0.103,0.104
		c0,0.103-0.103,0.207-0.103,0.103c-0.104,0-0.207,0-0.207-0.103C35.384,20.692,35.384,20.692,35.487,20.692z"/>
	<path opacity="0.86" fill-rule="evenodd" clip-rule="evenodd" fill="#A44685" d="M36.108,20.796c0,0,0.104,0,0.104,0.103
		c0,0.104-0.104,0.104-0.207,0.104l-0.104-0.104C35.901,20.796,36.004,20.692,36.108,20.796z"/>
	<path opacity="0.86" fill-rule="evenodd" clip-rule="evenodd" fill="#A44685" d="M36.521,20.796c0.104,0,0.104,0.103,0.104,0.103
		c0,0.104-0.104,0.207-0.207,0.207c0-0.104-0.104-0.104-0.104-0.207C36.315,20.796,36.418,20.796,36.521,20.796z"/>
	<path opacity="0.86" fill-rule="evenodd" clip-rule="evenodd" fill="#A44685" d="M37.039,20.796c0.104,0,0.207,0.103,0.207,0.207
		c-0.104,0-0.104,0.104-0.207,0.104s-0.104-0.104-0.104-0.207L37.039,20.796z"/>
	<path opacity="0.86" fill-rule="evenodd" clip-rule="evenodd" fill="#FFFFFF" d="M19.451,36.936
		c-0.207,0.207-1.138,0.414-2.69,0.62c-0.311,0.104-0.518,0.104-0.621,0.104c-1.759,0.207-3,0.518-3.725,1.034
		c-0.724,0.518-1.034,1.139-1.034,2.07c0,0.931,0.207,1.655,0.827,2.172c0.518,0.518,1.345,0.725,2.276,0.725
		c0.724,0,1.345-0.104,1.966-0.311c0.724-0.207,1.242-0.518,1.655-0.931c0.518-0.414,0.828-0.828,1.035-1.346
		c0.207-0.517,0.311-1.241,0.311-2.276V36.936L19.451,36.936z M21.727,44.178c-0.104,0-0.207,0-0.311,0c-0.207,0-0.31,0-0.414,0
		c-0.518,0-0.931-0.104-1.241-0.414c-0.207-0.414-0.311-1.035-0.311-1.759c-0.518,0.724-1.242,1.345-2.069,1.759
		c-0.931,0.414-1.966,0.621-3.104,0.621c-1.035,0-1.966-0.207-2.69-0.932c-0.724-0.621-1.034-1.448-1.034-2.586
		c0-1.035,0.414-1.967,1.138-2.587c0.724-0.518,2.069-0.931,3.932-1.241c0.31,0,0.724-0.104,1.241-0.104
		c1.656-0.207,2.587-0.725,2.587-1.346v-1.034c0-0.932-0.311-1.552-0.931-1.966c-0.518-0.518-1.449-0.725-2.587-0.725
		c-1.241,0-2.172,0.311-2.897,0.828c-0.724,0.518-1.138,1.345-1.241,2.276H11.07c0.104-1.139,0.517-2.069,1.345-2.794
		c0.931-0.621,2.069-1.035,3.518-1.035c0.828,0,1.656,0.207,2.276,0.414c0.621,0.207,1.138,0.621,1.449,1.138
		c0.207,0.207,0.31,0.518,0.414,0.828c0.104,0.413,0.104,0.931,0.104,1.758v0.518v5.587c0,0.932,0,1.552,0.207,1.759
		c0.207,0.311,0.414,0.518,0.931,0.518c0,0,0.207-0.104,0.414-0.104l0,0V44.178L21.727,44.178z M23.692,44.178V31.452h0.828v2.07
		c0.414-0.725,0.931-1.346,1.656-1.76c0.724-0.414,1.655-0.621,2.586-0.621c1.449,0,2.483,0.414,3.311,1.242
		c0.724,0.725,1.035,1.862,1.035,3.311v8.484H32.28v-8.174c0-1.448-0.207-2.482-0.828-3.104c-0.518-0.621-1.449-1.035-2.587-1.035
		c-0.827,0-1.448,0.104-1.965,0.414c-0.518,0.207-1.035,0.518-1.345,0.932c-0.414,0.413-0.621,0.827-0.828,1.448
		c-0.104,0.62-0.207,1.448-0.207,2.69v0.724v6.104H23.692L23.692,44.178z M36.521,28.659v-1.966h0.724v1.966H36.521L36.521,28.659z
		 M36.521,31.452h0.724v14.692c0,1.241-0.104,2.069-0.414,2.482c-0.311,0.311-0.931,0.518-1.759,0.518h-0.518v-0.725h0.311
		c0.621,0,1.035-0.103,1.345-0.413c0.207-0.207,0.31-1.035,0.31-2.173V31.452z"/>
	<path opacity="0.86" fill-rule="evenodd" clip-rule="evenodd" fill="#A44685" d="M80.182,57.627h0.621v5.07h-0.621V57.627
		L80.182,57.627z M80.182,55.249h0.725v0.931h-0.725V55.249L80.182,55.249z M86.286,58.042c-0.414,0-0.827,0.207-1.034,0.621
		c-0.311,0.311-0.414,0.828-0.414,1.448c0,0.621,0.104,1.138,0.414,1.552c0.207,0.311,0.62,0.518,1.034,0.518
		s0.827-0.207,1.138-0.518c0.207-0.414,0.414-0.931,0.414-1.552c0-0.62-0.207-1.138-0.414-1.448
		C87.113,58.249,86.7,58.042,86.286,58.042L86.286,58.042z M87.838,55.145h0.621v7.553h-0.621v-1.035
		c-0.207,0.311-0.414,0.621-0.725,0.828c-0.31,0.104-0.62,0.207-1.034,0.207c-0.517,0-1.034-0.207-1.448-0.725
		c-0.311-0.414-0.518-1.138-0.518-1.862c0-0.724,0.207-1.448,0.621-1.862c0.311-0.518,0.828-0.725,1.448-0.725
		c0.311,0,0.621,0.104,0.931,0.207c0.311,0.207,0.518,0.414,0.725,0.725V55.145L87.838,55.145z M96.012,59.904v0.311h-3.621
		c0.104,0.725,0.207,1.241,0.518,1.552s0.724,0.414,1.345,0.414c0.206,0,0.413,0,0.62-0.104c0.207,0,0.414-0.104,0.725-0.207v0.621
		c-0.207,0.104-0.518,0.207-0.725,0.207c-0.207,0.104-0.414,0.104-0.724,0.104c-0.725,0-1.345-0.311-1.655-0.725
		c-0.518-0.414-0.725-1.138-0.725-1.966c0-0.724,0.207-1.345,0.621-1.862s0.931-0.725,1.655-0.725c0.62,0,1.034,0.207,1.345,0.621
		C95.805,58.559,96.012,59.18,96.012,59.904L96.012,59.904z M95.287,59.8c0-0.517-0.104-1.034-0.414-1.241
		c-0.207-0.311-0.518-0.518-0.931-0.518c-0.414,0-0.724,0.207-1.034,0.518s-0.414,0.725-0.414,1.241H95.287L95.287,59.8z
		 M101.082,60.111c-0.518,0-1.035,0.104-1.346,0.311s-0.518,0.518-0.518,0.827c0,0.311,0.104,0.518,0.311,0.725
		c0.207,0.104,0.414,0.207,0.725,0.207c0.518,0,0.828-0.104,1.138-0.414c0.207-0.311,0.413-0.725,0.413-1.241v-0.414H101.082
		L101.082,60.111z M102.426,59.491v3.207h-0.621v-0.932c-0.104,0.311-0.413,0.518-0.62,0.725c-0.31,0.104-0.62,0.207-1.034,0.207
		s-0.828-0.104-1.139-0.414c-0.207-0.207-0.414-0.518-0.414-0.932c0-0.62,0.207-1.034,0.621-1.345
		c0.518-0.31,1.139-0.414,1.966-0.414h0.62l0,0c0-0.103,0-0.103,0-0.103c0-0.414-0.104-0.828-0.31-1.035
		c-0.207-0.207-0.517-0.311-0.827-0.311s-0.518,0-0.725,0.104c-0.311,0-0.518,0.104-0.725,0.311v-0.621
		c0.207-0.207,0.414-0.207,0.725-0.311c0.207-0.104,0.518-0.104,0.725-0.104c0.62,0,1.033,0.207,1.344,0.518
		S102.426,58.87,102.426,59.491L102.426,59.491z M108.53,57.731v0.621c-0.206-0.104-0.413-0.104-0.62-0.207
		c-0.104,0-0.311,0-0.518,0c-0.311,0-0.621,0-0.725,0.207c-0.207,0.104-0.311,0.311-0.311,0.518c0,0.311,0.311,0.621,0.932,0.828
		c0.104,0,0.104,0.103,0.207,0.103c0.414,0.207,0.828,0.414,1.034,0.725c0.207,0.207,0.207,0.414,0.207,0.827
		c0,0.414-0.104,0.725-0.413,0.932c-0.414,0.311-0.725,0.414-1.346,0.414c-0.207,0-0.518,0-0.725,0
		c-0.207-0.104-0.414-0.104-0.518-0.207V61.87c0.104,0.104,0.311,0.207,0.518,0.207c0.207,0.104,0.518,0.104,0.725,0.104
		c0.311,0,0.621-0.104,0.828-0.207c0.207-0.207,0.311-0.414,0.311-0.621s-0.104-0.413-0.207-0.517
		c-0.104-0.207-0.414-0.414-0.932-0.621s-0.828-0.517-1.035-0.621c-0.207-0.206-0.207-0.413-0.207-0.724
		c0-0.414,0.104-0.725,0.414-0.932s0.725-0.311,1.139-0.311c0.311,0,0.518,0,0.621,0C108.117,57.627,108.324,57.731,108.53,57.731
		L108.53,57.731z M112.669,61.766h0.827v0.932h-0.827V61.766L112.669,61.766z M112.669,55.663h0.827l-0.104,5.276h-0.62
		L112.669,55.663z"/>
	<path opacity="0.86" fill-rule="evenodd" clip-rule="evenodd" fill="#0066B2" d="M2.069,58.042c-0.414,0-0.828,0.207-1.035,0.518
		c-0.311,0.414-0.414,0.932-0.414,1.552c0,0.621,0.104,1.138,0.414,1.448c0.207,0.414,0.621,0.518,1.035,0.518
		c0.517,0,0.828-0.104,1.138-0.518c0.207-0.311,0.414-0.827,0.414-1.448c0-0.62-0.207-1.138-0.414-1.552
		C2.897,58.249,2.586,58.042,2.069,58.042L2.069,58.042z M3.621,58.559v-0.932h0.621v4.449c0,0.932-0.207,1.655-0.621,2.069
		C3.311,64.663,2.69,64.87,1.966,64.87c-0.311,0-0.518,0-0.828-0.104c-0.311,0-0.518-0.104-0.725-0.207v-0.62
		c0.207,0.104,0.518,0.207,0.725,0.207c0.31,0.104,0.517,0.104,0.828,0.104c0.517,0,0.931-0.104,1.242-0.414
		c0.31-0.413,0.414-0.931,0.414-1.552v-0.621c-0.207,0.311-0.414,0.518-0.724,0.725s-0.518,0.311-0.931,0.311
		c-0.621,0-1.138-0.311-1.449-0.725C0.207,61.559,0,60.939,0,60.111c0-0.724,0.104-1.448,0.517-1.862
		c0.311-0.518,0.828-0.725,1.449-0.725c0.414,0,0.724,0.104,1.035,0.311C3.311,57.938,3.518,58.249,3.621,58.559L3.621,58.559z
		 M7.863,57.627h0.724v5.07H7.863V57.627L7.863,57.627z M7.863,55.249h0.724v0.931H7.863V55.249L7.863,55.249z M11.484,57.627h0.724
		l1.345,4.449l1.552-4.449h0.621l-1.759,5.07h-0.724L11.484,57.627L11.484,57.627z M18.52,57.627h0.621v5.07H18.52V57.627
		L18.52,57.627z M18.52,55.249h0.724v0.931H18.52V55.249L18.52,55.249z M26.796,59.593v3.104h-0.621v-3
		c0-0.518-0.104-0.932-0.207-1.139c-0.207-0.311-0.518-0.414-0.931-0.414c-0.518,0-0.828,0.104-1.138,0.518
		c-0.207,0.311-0.414,0.828-0.414,1.345v2.69h-0.621v-5.07h0.621v0.932c0.207-0.311,0.414-0.621,0.724-0.725
		c0.311-0.207,0.621-0.311,0.932-0.311c0.621,0,1.035,0.207,1.345,0.518C26.693,58.456,26.796,58.973,26.796,59.593L26.796,59.593z
		 M32.28,58.042c-0.518,0-0.828,0.207-1.138,0.518c-0.207,0.414-0.311,0.932-0.311,1.552c0,0.621,0.104,1.138,0.311,1.448
		c0.311,0.414,0.724,0.518,1.138,0.518c0.414,0,0.828-0.104,1.035-0.518c0.31-0.311,0.517-0.827,0.517-1.448
		c0-0.62-0.207-1.138-0.517-1.552C33.107,58.249,32.797,58.042,32.28,58.042L32.28,58.042z M33.832,58.559v-0.932h0.621v4.449
		c0,0.932-0.207,1.655-0.621,2.069c-0.31,0.517-0.931,0.724-1.655,0.724c-0.311,0-0.621,0-0.828-0.104
		c-0.207,0-0.518-0.104-0.725-0.207v-0.62c0.311,0.104,0.518,0.207,0.725,0.207c0.31,0.104,0.517,0.104,0.828,0.104
		c0.517,0,0.931-0.104,1.242-0.414c0.31-0.413,0.414-0.931,0.414-1.552v-0.621c-0.207,0.311-0.414,0.518-0.621,0.725
		c-0.311,0.207-0.621,0.311-1.035,0.311c-0.621,0-1.035-0.311-1.449-0.725c-0.414-0.414-0.621-1.034-0.621-1.862
		c0-0.724,0.207-1.448,0.621-1.862c0.414-0.518,0.828-0.725,1.449-0.725c0.414,0,0.724,0.104,1.035,0.311
		C33.418,57.938,33.728,58.249,33.832,58.559L33.832,58.559z M65.49,56.179v1.448h1.139v0.518H65.49v3c0,0.414,0,0.621,0.207,0.725
		c0.104,0.207,0.207,0.311,0.518,0.311c0.104,0,0.104,0,0.207-0.104c0.104,0,0.207,0,0.311,0v0.518
		c-0.104,0.104-0.207,0.104-0.414,0.104c0,0-0.104,0-0.207,0c-0.518,0-0.828-0.104-1.035-0.311
		c-0.103-0.207-0.206-0.621-0.206-1.139v-3.104h-1.035v-0.518h1.035v-1.241L65.49,56.179L65.49,56.179z M71.802,58.042
		c-0.518,0-0.931,0.207-1.241,0.621s-0.414,0.931-0.414,1.448c0,0.621,0.104,1.138,0.414,1.552c0.311,0.311,0.724,0.518,1.241,0.518
		s0.827-0.207,1.138-0.518c0.311-0.414,0.414-0.827,0.414-1.552c0-0.62-0.104-1.034-0.414-1.448S72.319,58.042,71.802,58.042
		L71.802,58.042z M71.802,57.524c0.724,0,1.241,0.207,1.655,0.725s0.621,1.139,0.621,1.862c0,0.828-0.207,1.552-0.621,1.966
		s-0.932,0.725-1.655,0.725s-1.241-0.311-1.759-0.725c-0.414-0.414-0.621-1.138-0.621-1.966c0-0.724,0.207-1.345,0.621-1.862
		S71.078,57.524,71.802,57.524z"/>
</g>
</svg>
