<?xml version="1.0" encoding="utf-8"?>
<svg version="1.1" xmlns="http://www.w3.org/2000/svg" xmlns:xlink="http://www.w3.org/1999/xlink" x="0px" y="0px" width="286.3px" height="286.3px"
viewBox="0 0 286.3 286.3">
<style type="text/css">
.st0{fill:url(#SVGID_1_);stroke:#000000;stroke-width:1.714}
.st1{fill:#4D4D4D;stroke:#000;stroke-width:1.0284}
</style>
<g id="B1">
<linearGradient id="SVGID_1_" gradientUnits="userSpaceOnUse" x1="241.925" y1="46.075" x2="42.675" y2="245.325" gradientTransform="matrix(1 0 0 -1 0 288)">
<stop  offset="0" style="stop-color:#0095D8"/>
<stop  offset="0.4961" style="stop-color:#F5FAF9"/>
<stop  offset="1" style="stop-color:#6AB023"/>
</linearGradient>
<path class="st0" d="M142.3,1.4C64.5,1.4,1.4,64.5,1.4,142.3s63.1,140.9,140.9,140.9s140.9-63.1,140.9-140.9S220.1,1.4,142.3,1.4zM142.3,267.2c-69,0-124.9-55.9-124.9-124.9S73.3,17.4,142.3,17.4s124.9,55.9,124.9,124.9S211.3,267.2,142.3,267.2z"/>
<path class="st1" d="M155.7,123h10.5l-19.1,24.6v13.2h-9v-13.2L119,123h10.6l13,17.5L155.7,123z"/>
<path class="st1" d="M206.3,123v7.7H181v7.2h24.3v7.4H181v7.7h25.3v7.8h-34.1V123H206.3z"/>
<path class="st1" d="M159.6,170.3v7.7h-25.3v7.2h24.3v7.4h-24.3v7.7h25.3v7.7h-34.1v-37.7H159.6z"/>
<path class="st1" d="M235.7,146.4h-7.2v14.4h-8.8V123h22.9c6.4,0,11.7,5.2,11.7,11.7c0,5.3-3.5,9.8-8.4,11.2l11.1,14.8h-10.5L235.7,146.4z M241.8,130.7h-13.3v8.2h13.3c2.3,0,4.1-2,4.1-4.1C245.9,132.8,244.1,130.7,241.8,130.7z"/>
<path class="st1" d="M154,230.7c0-2.1-1.7-4.2-4.1-4.2h-15.5v8.3h15.5C152.2,234.8,154,232.7,154,230.7z M125.5,256.6v-37.7h25.2c6.4,0,11.6,5.3,11.6,11.7c0,4.9-3,9.1-7.3,10.8l11.3,15.2h-10.5L145,242.2h-10.8v14.4H125.5z"/>
<path class="st1" d="M121.6,160.7h-9.5l-3.1-6.5H87.7l-3.1,6.5h-9.4L94,123h8.7L121.6,160.7z M98.4,132l-7.5,14.9h14.8L98.4,132z"/>
<path class="st1" d="M165.8,112.7h-9.5l-3.1-6.5h-21.3l-3.1,6.5h-9.4L138.2,75h8.7L165.8,112.7z M142.6,83.9l-7.5,14.9h14.8L142.6,83.9z"/>
<path class="st1" d="M38.9,138h16c1.8,0,3.6-1.6,3.6-3.7c0-2-1.6-3.7-3.6-3.7h-16V138z M38.9,153.3h16.7c2.4,0,4.3-2,4.3-4.1s-2-4.3-4.3-4.3H38.9V153.3zM64.4,141.1c2.2,2.1,4,4.6,4,8.2c0,6.3-5,11.5-12.2,11.5h-26V123H56c6.1,0,11,4.9,11,11
C67,136.7,66,139.2,64.4,141.1z"/>
<path class="st1" d="M134.3,43.8h15.9c1.8,0,3.6-1.6,3.6-3.6s-1.6-3.7-3.6-3.7h-15.9V43.8z M134.3,59H151c2.4,0,4.3-2,4.3-4.1s-2-4.3-4.3-4.3h-16.6L134.3,59L134.3,59zM159.7,46.9c2.2,2.1,4,4.6,4,8.2c0,6.3-5,11.5-12.2,11.5h-26.1V28.8h25.8
c6.1,0,11,4.9,11,11C162.3,42.5,161.4,45,159.7,46.9z"/>
</g>
</svg>
